<svg width="375" height="48" viewBox="0 0 375 48" fill="none" xmlns="http://www.w3.org/2000/svg">
<path fill-rule="evenodd" clip-rule="evenodd" d="M322 19C322 18.4477 322.448 18 323 18H339C339.552 18 340 18.4477 340 19C340 19.5523 339.552 20 339 20H323C322.448 20 322 19.5523 322 19ZM322 24C322 23.4477 322.448 23 323 23L339 23C339.552 23 340 23.4477 340 24C340 24.5523 339.552 25 339 25L323 25C322.448 25 322 24.5523 322 24ZM323 28C322.448 28 322 28.4477 322 29C322 29.5523 322.448 30 323 30H339C339.552 30 340 29.5523 340 29C340 28.4477 339.552 28 339 28H323Z" fill="#28352F"/>
</svg>
